<?xml version="1.0" encoding="UTF-8"?>
<svg xmlns="http://www.w3.org/2000/svg" xmlns:xlink="http://www.w3.org/1999/xlink" width="255.12pt" height="141.73pt" viewBox="0 0 255.12 141.73" version="1.1">
<g id="surface1">
<path style=" stroke:none;fill-rule:nonzero;fill:rgb(0.39978%,0.39978%,0.39978%);fill-opacity:0;" d="M 0 141.730469 L 255.117188 141.730469 L 255.117188 -0.00390625 L 0 -0.00390625 Z M 0 141.730469 "/>
<path style=" stroke:none;fill-rule:nonzero;fill:rgb(85.899353%,36.898804%,14.898682%);fill-opacity:1;" d="M 117.199219 68.476563 L 138.960938 68.476563 L 138.960938 92.023438 L 133.269531 92.023438 L 133.269531 74.132813 L 122.886719 74.132813 L 122.886719 92.023438 L 117.199219 92.023438 "/>
<path style=" stroke:none;fill-rule:nonzero;fill:rgb(85.899353%,36.898804%,14.898682%);fill-opacity:1;" d="M 158.601563 82.507813 L 158.371094 82.9375 C 157.398438 84.769531 155.523438 86.011719 153.308594 86.011719 C 150.15625 86.003906 147.554688 83.402344 147.546875 80.222656 C 147.554688 77.101563 150.15625 74.496094 153.308594 74.488281 C 155.523438 74.488281 157.402344 75.730469 158.371094 77.535156 L 158.601563 77.957031 L 164.050781 75.109375 L 163.824219 74.675781 C 161.820313 70.921875 157.847656 68.359375 153.308594 68.355469 C 146.734375 68.359375 141.386719 73.703125 141.382813 80.222656 C 141.382813 86.820313 146.734375 92.144531 153.308594 92.144531 L 153.3125 92.144531 C 157.90625 92.144531 161.824219 89.605469 163.824219 85.851563 L 164.046875 85.425781 L 163.621094 85.195313 "/>
<path style=" stroke:none;fill-rule:nonzero;fill:rgb(85.899353%,36.898804%,14.898682%);fill-opacity:1;" d="M 166.113281 68.476563 L 171.800781 68.476563 L 171.800781 77.410156 L 175.503906 77.410156 L 181.589844 68.476563 L 188.5 68.476563 L 180.429688 80.21875 L 188.5 92.023438 L 181.589844 92.023438 L 175.535156 83.09375 L 171.800781 83.09375 L 171.800781 92.023438 L 166.113281 92.023438 "/>
<path style=" stroke:none;fill-rule:nonzero;fill:rgb(100%,100%,100%);fill-opacity:1;" d="M 56.847656 89.75 C 57.144531 90.308594 57.71875 90.6875 58.394531 90.6875 C 59.105469 90.6875 59.746094 90.28125 60.019531 89.648438 L 57.582031 89.648438 L 57.582031 88.226563 L 60.019531 88.226563 C 59.757813 87.601563 59.105469 87.171875 58.394531 87.171875 C 57.71875 87.171875 57.144531 87.550781 56.847656 88.101563 L 55.554688 87.425781 C 56.101563 86.410156 57.175781 85.714844 58.394531 85.714844 C 60.179688 85.714844 61.617188 87.164063 61.617188 88.921875 C 61.617188 90.707031 60.179688 92.144531 58.394531 92.144531 C 57.160156 92.144531 56.101563 91.457031 55.554688 90.445313 "/>
<path style=" stroke:none;fill-rule:nonzero;fill:rgb(100%,100%,100%);fill-opacity:1;" d="M 63.320313 85.917969 L 64.773438 85.917969 L 64.773438 88.203125 L 65.71875 88.203125 L 67.277344 85.917969 L 69.042969 85.917969 L 66.980469 88.921875 L 69.042969 91.941406 L 67.277344 91.941406 L 65.730469 89.65625 L 64.773438 89.65625 L 64.773438 91.941406 L 63.320313 91.941406 "/>
<path style=" stroke:none;fill-rule:nonzero;fill:rgb(100%,100%,100%);fill-opacity:1;" d="M 73.277344 87.171875 C 72.3125 87.171875 71.519531 87.964844 71.519531 88.921875 C 71.519531 89.894531 72.3125 90.6875 73.277344 90.6875 C 74.25 90.6875 75.027344 89.894531 75.027344 88.921875 C 75.027344 87.964844 74.25 87.171875 73.277344 87.171875 M 73.277344 85.714844 C 75.042969 85.714844 76.488281 87.164063 76.488281 88.921875 C 76.488281 90.707031 75.042969 92.144531 73.277344 92.144531 C 71.5 92.144531 70.054688 90.707031 70.054688 88.921875 C 70.054688 87.164063 71.5 85.714844 73.277344 85.714844 "/>
<path style=" stroke:none;fill-rule:nonzero;fill:rgb(100%,100%,100%);fill-opacity:1;" d="M 83.96875 90.445313 C 83.425781 91.457031 82.367188 92.144531 81.128906 92.144531 C 79.351563 92.144531 77.90625 90.707031 77.90625 88.921875 C 77.90625 87.164063 79.351563 85.714844 81.128906 85.714844 C 82.351563 85.714844 83.425781 86.410156 83.96875 87.421875 L 82.671875 88.101563 C 82.378906 87.550781 81.800781 87.171875 81.128906 87.171875 C 80.160156 87.171875 79.367188 87.964844 79.367188 88.921875 C 79.367188 89.894531 80.160156 90.6875 81.128906 90.6875 C 81.800781 90.6875 82.378906 90.308594 82.671875 89.75 "/>
<path style=" stroke:none;fill-rule:nonzero;fill:rgb(100%,100%,100%);fill-opacity:1;" d="M 87.320313 87.355469 L 85.257813 87.355469 L 85.257813 85.917969 L 90.820313 85.917969 L 90.820313 87.355469 L 88.773438 87.355469 L 88.773438 91.941406 L 87.320313 91.941406 "/>
<path style=" stroke:none;fill-rule:nonzero;fill:rgb(100%,100%,100%);fill-opacity:1;" d="M 95.292969 89.351563 C 95.972656 89.351563 96.472656 88.878906 96.472656 88.347656 C 96.472656 87.824219 95.929688 87.347656 95.253906 87.347656 L 93.984375 87.347656 L 93.984375 89.351563 Z M 92.53125 85.917969 L 95.3125 85.917969 C 96.707031 85.917969 97.925781 86.96875 97.925781 88.347656 C 97.925781 89.714844 96.726563 90.78125 95.3125 90.78125 L 93.984375 90.78125 L 93.984375 91.941406 L 92.53125 91.941406 "/>
<path style=" stroke:none;fill-rule:nonzero;fill:rgb(100%,100%,100%);fill-opacity:1;" d="M 102.527344 87.171875 C 101.566406 87.171875 100.769531 87.964844 100.769531 88.921875 C 100.769531 89.894531 101.566406 90.6875 102.527344 90.6875 C 103.5 90.6875 104.277344 89.894531 104.277344 88.921875 C 104.277344 87.964844 103.5 87.171875 102.527344 87.171875 M 102.527344 85.714844 C 104.296875 85.714844 105.742188 87.164063 105.742188 88.921875 C 105.742188 90.707031 104.296875 92.144531 102.527344 92.144531 C 100.753906 92.144531 99.308594 90.707031 99.308594 88.921875 C 99.308594 87.164063 100.753906 85.714844 102.527344 85.714844 "/>
<path style=" stroke:none;fill-rule:nonzero;fill:rgb(100%,100%,100%);fill-opacity:1;" d="M 109.246094 83.804688 C 109.425781 84.152344 109.882813 84.734375 110.285156 84.734375 C 110.757813 84.734375 111.214844 84.007813 111.308594 83.8125 L 112.289063 84.296875 C 111.925781 85.03125 111.175781 85.824219 110.285156 85.824219 C 109.363281 85.824219 108.609375 84.972656 108.273438 84.304688 Z M 107.4375 85.917969 L 108.890625 85.917969 L 108.890625 89.714844 L 111.648438 85.917969 L 113.144531 85.917969 L 113.144531 91.941406 L 111.6875 91.941406 L 111.6875 88.144531 L 108.941406 91.941406 L 107.4375 91.941406 "/>
<path style=" stroke:none;fill-rule:nonzero;fill:rgb(100%,100%,100%);fill-opacity:1;" d="M 75.296875 80.070313 L 106.023438 26.558594 L 126.75 63.371094 L 122.722656 63.417969 L 105.996094 33.78125 L 81.46875 76.496094 L 111.652344 76.5 L 111.652344 80.070313 "/>
<path style=" stroke:none;fill-rule:nonzero;fill:rgb(85.899353%,36.898804%,14.898682%);fill-opacity:1;" d="M 100.238281 65.75 L 104.703125 65.75 L 104.703125 61.285156 L 100.238281 61.285156 Z M 100.238281 65.75 "/>
<path style=" stroke:none;fill-rule:nonzero;fill:rgb(85.899353%,36.898804%,14.898682%);fill-opacity:1;" d="M 106.84375 65.75 L 111.3125 65.75 L 111.3125 61.285156 L 106.84375 61.285156 Z M 106.84375 65.75 "/>
<path style=" stroke:none;fill-rule:nonzero;fill:rgb(85.899353%,36.898804%,14.898682%);fill-opacity:1;" d="M 100.238281 72.539063 L 104.703125 72.539063 L 104.703125 68.074219 L 100.238281 68.074219 Z M 100.238281 72.539063 "/>
<path style=" stroke:none;fill-rule:nonzero;fill:rgb(85.899353%,36.898804%,14.898682%);fill-opacity:1;" d="M 106.84375 72.539063 L 111.3125 72.539063 L 111.3125 68.074219 L 106.84375 68.074219 Z M 106.84375 72.539063 "/>
</g>
</svg>
